# xmcd CD database file
#
# Track frame offsets:
#	150
#	29475
#	53100
#	76875
#
# Disc length: 1320 seconds
#
# Revision: 1
# Processed by: cddbd v1.5.2PL0 Copyright (c) Steve Scherf et al.
# Submitted via: CDex 1.51
#
DISCID=28052604
DTITLE=Various Artist - En lugn stund
DYEAR=2004
DGENRE=New Age
TTITLE0=Blessing
TTITLE1=Falling for you
TTITLE2=The dove
TTITLE3=Seashell
EXTD=YEAR: 2004
EXTT0=
EXTT1=
EXTT2=
EXTT3=
PLAYORDER=
